Hanif_Deep_5_0_grf.mot
version=1
nRows=21
nColumns=19
inDegrees=yes
endheader
time	right_ground_force_vx	right_ground_force_vy	right_ground_force_vz	right_ground_force_px	right_ground_force_py	right_ground_force_pz	right_ground_torque_x	right_ground_torque_y	right_ground_torque_z	left_ground_force_vx	left_ground_force_vy	left_ground_force_vz	left_ground_force_px	left_ground_force_py	left_ground_force_pz	left_ground_torque_x	left_ground_torque_y	left_ground_torque_z
4.245000	-9.791880	283.112000	-19.164900	0.196534	0.000000	-1.436380	-19.958200	6.439670	-1.467970	2.768500	305.808000	16.592400	0.223061	0.000000	-0.981846	24.022800	-10.428000	6.519140
4.250000	-9.627910	286.144000	-19.418200	0.197089	0.000000	-1.435280	-20.478100	6.467220	-1.321890	1.995400	311.231000	16.625400	0.223848	0.000000	-0.980897	24.181000	-10.360400	6.898400
4.255000	-9.801590	290.576000	-19.091600	0.198260	0.000000	-1.435040	-20.868300	6.646790	-0.990237	1.239820	314.422000	17.120500	0.224506	0.000000	-0.981785	24.733000	-10.377100	7.168250
4.260000	-10.026900	297.539000	-18.888800	0.198119	0.000000	-1.435580	-21.203300	6.677900	-1.030660	1.150710	320.940000	17.486500	0.224754	0.000000	-0.982362	25.434600	-10.482600	7.402000
4.265000	-10.164200	301.114000	-18.677400	0.198739	0.000000	-1.434530	-21.776600	6.790780	-0.847537	1.114680	327.311000	18.010800	0.225127	0.000000	-0.981420	25.633500	-10.624000	7.669550
4.270000	-10.921500	308.198000	-18.657900	0.199378	0.000000	-1.434480	-22.312300	6.865810	-0.655403	1.279220	332.695000	18.642800	0.225580	0.000000	-0.982634	26.455000	-10.657300	7.945630
4.275000	-11.410100	316.060000	-17.974400	0.200589	0.000000	-1.434110	-23.001700	6.980320	-0.256769	1.672940	338.572000	18.744200	0.225633	0.000000	-0.983322	27.144000	-10.877200	8.110470
4.280000	-12.445600	324.368000	-17.280100	0.201041	0.000000	-1.433910	-23.688700	7.034870	-0.083792	1.844280	345.334000	18.968000	0.226307	0.000000	-0.983537	27.756700	-11.045600	8.513530
4.285000	-13.644100	334.284000	-16.421500	0.201967	0.000000	-1.433770	-24.473800	7.064180	0.263535	1.487740	350.913000	18.943700	0.225959	0.000000	-0.984374	28.510300	-11.174900	8.539170
4.290000	-14.580700	342.280000	-15.578900	0.202582	0.000000	-1.433390	-25.195800	7.026010	0.517650	1.050480	359.847000	18.903500	0.226079	0.000000	-0.983926	29.089700	-11.229000	8.824820
4.295000	-15.193800	350.011000	-15.096400	0.203139	0.000000	-1.432980	-25.911600	7.069060	0.748007	1.264530	365.750000	18.842000	0.226330	0.000000	-0.983904	29.553100	-11.431500	9.072220
4.300000	-15.788000	356.646000	-13.886600	0.203307	0.000000	-1.432230	-26.675400	7.145620	0.857646	0.939900	372.700000	18.401500	0.226154	0.000000	-0.983888	30.119300	-11.576500	9.203390
4.305000	-15.868500	364.316000	-13.010800	0.203705	0.000000	-1.431860	-27.372100	7.167430	1.053530	0.621533	380.283000	17.641300	0.225775	0.000000	-0.983994	30.782400	-11.730800	9.281020
4.310000	-15.373400	367.345000	-12.555100	0.203995	0.000000	-1.431290	-27.797400	7.349460	1.178800	0.413531	386.907000	16.532600	0.225918	0.000000	-0.983660	31.195800	-11.822100	9.542320
4.315000	-15.035800	375.066000	-11.172000	0.203911	0.000000	-1.431930	-28.119300	7.356010	1.216070	0.092822	392.651000	15.178400	0.225764	0.000000	-0.983960	31.786400	-11.913600	9.671000
4.320000	-14.546400	379.443000	-10.398600	0.204070	0.000000	-1.431630	-28.541700	7.357740	1.314260	-0.110264	398.369000	13.628400	0.225506	0.000000	-0.983494	32.069500	-11.971500	9.762760
4.325000	-13.696100	384.019000	-9.307990	0.203809	0.000000	-1.431310	-28.985500	7.477180	1.257560	-0.001297	404.347000	11.713300	0.224821	0.000000	-0.982938	32.322700	-12.187200	9.691620
4.330000	-12.942700	388.941000	-7.668060	0.203442	0.000000	-1.430880	-29.500400	7.596980	1.170490	0.302141	409.090000	9.786460	0.223956	0.000000	-0.982760	32.620300	-12.320700	9.511500
4.335000	-12.294900	391.918000	-5.423880	0.203508	0.000000	-1.431190	-29.588700	7.684270	1.255910	0.444896	410.663000	7.788810	0.224189	0.000000	-0.982803	32.759100	-12.323300	9.704170
4.340000	-11.754700	396.307000	-3.822590	0.203407	0.000000	-1.431340	-29.843000	7.765400	1.266910	0.494887	413.318000	6.158400	0.223271	0.000000	-0.982696	32.925300	-12.370700	9.436780
4.345000	-11.259200	398.605000	-2.021570	0.203282	0.000000	-1.430880	-30.184100	7.686970	1.265090	-0.117533	416.681000	4.015660	0.222626	0.000000	-0.981765	32.823400	-12.422300	9.308980
